<svg xmlns="http://www.w3.org/2000/svg" viewBox="0 0 1920 1080"><g transform="
          rotate(0 960 540) 
          translate(-0 -0)
          scale(1)
        "><rect width="1920" height="1080" fill="rgb(184, 171, 255)"></rect><g transform="translate(0, 0)"><path fill="rgb(164, 150, 241)" fill-opacity="1" d="M0,132.354L53.333,131.278C106.667,130.203,213.333,128.051,320,127.718C426.667,127.385,533.333,128.869,640,129.036C746.667,129.202,853.333,128.052,960,113.694C1066.667,99.335,1173.333,71.769,1280,69.441C1386.667,67.112,1493.333,90.023,1600,83.001C1706.667,75.979,1813.333,39.026,1866.667,20.549L1920,2.072L1920,1080L1866.667,1080C1813.333,1080,1706.667,1080,1600,1080C1493.333,1080,1386.667,1080,1280,1080C1173.333,1080,1066.667,1080,960,1080C853.333,1080,746.667,1080,640,1080C533.333,1080,426.667,1080,320,1080C213.333,1080,106.667,1080,53.333,1080L0,1080Z"></path></g><g transform="translate(0, 135)"><path fill="rgb(145, 128, 227)" fill-opacity="1" d="M0,100.359L53.333,92.138C106.667,83.918,213.333,67.476,320,52.258C426.667,37.04,533.333,23.046,640,30.27C746.667,37.493,853.333,65.936,960,71.064C1066.667,76.193,1173.333,58.008,1280,48.905C1386.667,39.803,1493.333,39.784,1600,52.978C1706.667,66.172,1813.333,92.579,1866.667,105.783L1920,118.986L1920,945L1866.667,945C1813.333,945,1706.667,945,1600,945C1493.333,945,1386.667,945,1280,945C1173.333,945,1066.667,945,960,945C853.333,945,746.667,945,640,945C533.333,945,426.667,945,320,945C213.333,945,106.667,945,53.333,945L0,945Z"></path></g><g transform="translate(0, 270)"><path fill="rgb(125, 107, 213)" fill-opacity="1" d="M0,124.86L53.333,107.732C106.667,90.604,213.333,56.349,320,42.234C426.667,28.119,533.333,34.144,640,47.352C746.667,60.56,853.333,80.95,960,95.374C1066.667,109.798,1173.333,118.256,1280,112.693C1386.667,107.13,1493.333,87.544,1600,67.617C1706.667,47.69,1813.333,27.421,1866.667,17.286L1920,7.152L1920,810L1866.667,810C1813.333,810,1706.667,810,1600,810C1493.333,810,1386.667,810,1280,810C1173.333,810,1066.667,810,960,810C853.333,810,746.667,810,640,810C533.333,810,426.667,810,320,810C213.333,810,106.667,810,53.333,810L0,810Z"></path></g><g transform="translate(0, 405)"><path fill="rgb(105, 86, 199)" fill-opacity="1" d="M0,1.003L53.333,14.38C106.667,27.756,213.333,54.509,320,62.918C426.667,71.327,533.333,61.393,640,51.067C746.667,40.741,853.333,30.023,960,27.096C1066.667,24.168,1173.333,29.03,1280,32.478C1386.667,35.927,1493.333,37.962,1600,49.896C1706.667,61.83,1813.333,83.663,1866.667,94.579L1920,105.496L1920,675L1866.667,675C1813.333,675,1706.667,675,1600,675C1493.333,675,1386.667,675,1280,675C1173.333,675,1066.667,675,960,675C853.333,675,746.667,675,640,675C533.333,675,426.667,675,320,675C213.333,675,106.667,675,53.333,675L0,675Z"></path></g><g transform="translate(0, 540)"><path fill="rgb(85, 64, 185)" fill-opacity="1" d="M0,129.207L53.333,129.996C106.667,130.785,213.333,132.363,320,123.234C426.667,114.105,533.333,94.268,640,78.485C746.667,62.703,853.333,50.975,960,40.739C1066.667,30.503,1173.333,21.758,1280,34.677C1386.667,47.597,1493.333,82.179,1600,102.063C1706.667,121.946,1813.333,127.13,1866.667,129.722L1920,132.314L1920,540L1866.667,540C1813.333,540,1706.667,540,1600,540C1493.333,540,1386.667,540,1280,540C1173.333,540,1066.667,540,960,540C853.333,540,746.667,540,640,540C533.333,540,426.667,540,320,540C213.333,540,106.667,540,53.333,540L0,540Z"></path></g><g transform="translate(0, 675)"><path fill="rgb(66, 43, 171)" fill-opacity="1" d="M0,133.417L53.333,125.539C106.667,117.662,213.333,101.907,320,92.069C426.667,82.231,533.333,78.309,640,70.297C746.667,62.285,853.333,50.181,960,59.741C1066.667,69.301,1173.333,100.524,1280,113.545C1386.667,126.566,1493.333,121.384,1600,119.911C1706.667,118.438,1813.333,120.674,1866.667,121.791L1920,122.909L1920,405L1866.667,405C1813.333,405,1706.667,405,1600,405C1493.333,405,1386.667,405,1280,405C1173.333,405,1066.667,405,960,405C853.333,405,746.667,405,640,405C533.333,405,426.667,405,320,405C213.333,405,106.667,405,53.333,405L0,405Z"></path></g><g transform="translate(0, 810)"><path fill="rgb(46, 21, 157)" fill-opacity="1" d="M0,100.641L53.333,85.835C106.667,71.028,213.333,41.416,320,44.962C426.667,48.508,533.333,85.213,640,93.552C746.667,101.891,853.333,81.865,960,64.836C1066.667,47.807,1173.333,33.776,1280,33.487C1386.667,33.197,1493.333,46.65,1600,65.397C1706.667,84.144,1813.333,108.185,1866.667,120.206L1920,132.226L1920,270L1866.667,270C1813.333,270,1706.667,270,1600,270C1493.333,270,1386.667,270,1280,270C1173.333,270,1066.667,270,960,270C853.333,270,746.667,270,640,270C533.333,270,426.667,270,320,270C213.333,270,106.667,270,53.333,270L0,270Z"></path></g><g transform="translate(0, 945)"><path fill="rgb(26, 0, 143)" fill-opacity="1" d="M0,68.755L53.333,66.866C106.667,64.978,213.333,61.2,320,51.161C426.667,41.123,533.333,24.823,640,16.479C746.667,8.136,853.333,7.75,960,15.089C1066.667,22.428,1173.333,37.492,1280,57.909C1386.667,78.325,1493.333,104.094,1600,112.832C1706.667,121.569,1813.333,113.276,1866.667,109.129L1920,104.982L1920,135L1866.667,135C1813.333,135,1706.667,135,1600,135C1493.333,135,1386.667,135,1280,135C1173.333,135,1066.667,135,960,135C853.333,135,746.667,135,640,135C533.333,135,426.667,135,320,135C213.333,135,106.667,135,53.333,135L0,135Z"></path></g></g></svg>