<?xml version="1.0" standalone="no"?>
<!DOCTYPE svg PUBLIC "-//W3C//DTD SVG 20010904//EN"
 "http://www.w3.org/TR/2001/REC-SVG-20010904/DTD/svg10.dtd">
<svg version="1.0" xmlns="http://www.w3.org/2000/svg"
 width="301.000000pt" height="167.000000pt" viewBox="0 0 301.000000 167.000000"
 preserveAspectRatio="xMidYMid meet">

<g transform="translate(0.000000,167.000000) scale(0.100000,-0.100000)"
fill="#000000" stroke="none">
<path d="M122 1170 c-57 -35 -62 -61 -62 -337 0 -368 -15 -353 353 -353 263 0
291 4 332 50 19 21 20 36 20 306 l0 284 -33 32 -32 33 -273 3 c-259 2 -274 1
-305 -18z m392 -144 c66 -28 87 -101 43 -152 l-24 -27 31 -28 c27 -24 31 -34
31 -77 0 -40 -5 -56 -24 -76 -34 -36 -78 -46 -208 -46 l-113 0 0 210 0 210
115 0 c76 0 127 -5 149 -14z"/>
<path d="M330 926 l0 -56 73 0 c43 0 78 5 85 12 14 14 16 74 2 83 -5 3 -43 9
-85 12 l-75 5 0 -56z"/>
<path d="M330 745 l0 -65 68 0 c88 0 116 15 120 62 4 52 -22 68 -115 68 l-73
0 0 -65z"/>
<path d="M1010 878 l0 -153 106 5 c96 5 108 7 125 29 27 33 25 87 -5 114 l-24
21 20 27 c14 19 19 35 14 52 -12 50 -30 57 -137 57 l-99 0 0 -152z m178 100
c17 -17 15 -44 -4 -62 -10 -11 -34 -16 -70 -16 l-54 0 0 45 0 45 58 0 c32 0
63 -5 70 -12z m6 -124 c19 -18 21 -55 4 -72 -7 -7 -39 -12 -75 -12 l-63 0 0
50 0 50 59 0 c41 0 65 -5 75 -16z"/>
<path d="M1840 985 c0 -28 -4 -35 -20 -35 -13 0 -20 -7 -20 -20 0 -13 7 -20
20 -20 18 0 20 -7 20 -85 0 -75 2 -86 21 -95 27 -15 63 -9 67 12 2 11 -5 18
-20 20 -21 3 -23 8 -26 76 -3 67 -1 74 18 79 26 7 26 33 0 33 -16 0 -20 7 -20
35 0 28 -4 35 -20 35 -16 0 -20 -7 -20 -35z"/>
<path d="M2200 980 c0 -20 -5 -30 -15 -30 -8 0 -15 -9 -15 -20 0 -11 6 -20 14
-20 11 0 15 -21 17 -85 4 -93 11 -105 62 -105 20 0 27 5 27 20 0 13 -7 20 -20
20 -18 0 -20 7 -20 75 0 68 2 75 20 75 13 0 20 7 20 20 0 13 -7 20 -20 20 -16
0 -20 7 -20 30 0 25 -4 30 -25 30 -21 0 -25 -5 -25 -30z"/>
<path d="M1335 927 c-53 -45 -43 -162 16 -192 120 -63 229 92 132 189 -35 35
-109 37 -148 3z m114 -31 c48 -51 3 -161 -58 -141 -52 16 -64 117 -18 150 30
21 50 19 76 -9z"/>
<path d="M1597 930 c-51 -40 -55 -142 -7 -185 11 -10 41 -20 68 -23 40 -3 53
0 76 19 33 29 48 87 35 134 -13 47 -52 75 -104 75 -27 0 -51 -7 -68 -20z m112
-36 c29 -37 27 -89 -4 -119 -31 -31 -49 -31 -80 0 -46 45 -19 145 40 145 14 0
32 -11 44 -26z"/>
<path d="M1982 934 c-30 -21 -30 -69 1 -88 12 -8 42 -20 66 -27 47 -14 60 -31
41 -54 -17 -21 -54 -19 -75 5 -25 28 -65 27 -58 0 8 -32 43 -50 96 -50 81 0
124 62 75 107 -13 12 -40 24 -60 28 -20 4 -45 13 -55 20 -15 11 -15 15 -4 29
17 20 55 21 71 1 14 -16 60 -21 60 -6 0 5 -12 19 -26 30 -32 25 -100 28 -132
5z"/>
<path d="M2330 840 l0 -110 25 0 c24 0 25 2 25 70 0 76 19 110 60 110 13 0 20
7 20 20 0 27 -37 26 -67 -2 l-23 -21 0 21 c0 15 -6 22 -20 22 -19 0 -20 -7
-20 -110z"/>
<path d="M2505 925 c-14 -13 -25 -29 -25 -35 0 -18 45 -11 58 10 15 24 54 26
76 5 25 -26 8 -44 -47 -51 -84 -11 -122 -69 -77 -114 22 -22 79 -27 112 -9 14
8 23 8 31 0 16 -16 57 -14 57 3 0 8 -4 18 -10 21 -5 3 -10 40 -10 81 0 94 -16
114 -90 114 -41 0 -56 -5 -75 -25z m115 -120 c0 -36 -42 -62 -76 -46 -33 15
-29 52 6 62 52 15 70 11 70 -16z"/>
<path d="M2730 795 c0 -148 1 -155 20 -155 18 0 20 7 20 56 0 55 0 55 22 40
12 -9 39 -16 59 -16 30 0 43 7 64 32 24 29 27 38 23 92 -4 49 -9 63 -32 83
-30 26 -93 32 -115 11 -11 -10 -14 -10 -18 0 -3 6 -13 12 -24 12 -18 0 -19 -9
-19 -155z m141 106 c19 -15 24 -29 24 -66 0 -37 -5 -51 -24 -66 -31 -25 -47
-24 -76 6 -31 30 -33 82 -4 119 24 31 48 33 80 7z"/>
</g>
</svg>
